<svg height="507pt" viewBox="0 -4 507.2 507" width="507pt" xmlns="http://www.w3.org/2000/svg"><path d="m236.28125 120.238281c0 57.339844-41.519531 104.960938-96.140625 114.441407-6.5 1.140624-13.179687 1.71875-20 1.71875-64.140625 0-116.140625-52-116.140625-116.160157 0-64.136719 52-116.136719 116.140625-116.136719 6.820313 0 13.5.578126 20 1.71875 54.621094 9.480469 96.140625 57.101563 96.140625 114.417969zm0 0" fill="#d8d6d7"/><path d="m410.121094 432.558594v53.019531c0 5.523437-4.480469 10-10 10h-198.859375c-5.523438 0-10-4.476563-10-10v-53.019531zm0 0" fill="#56c1b3"/><path d="m410.121094 135.660156v29.71875h-218.859375v-29.71875c0-5.519531 4.476562-10 10-10h198.859375c5.519531 0 10 4.480469 10 10zm0 0" fill="#56c1b3"/><path d="m191.261719 165.378906h218.859375v267.179688h-218.859375zm0 0" fill="#fff"/><path d="m410.121094 432.558594v53.019531c0 5.523437-4.480469 10-10 10h-158.859375c-5.523438 0-10-4.476563-10-10v-53.019531zm0 0" fill="#7befe4"/><path d="m410.121094 135.660156v29.71875h-178.859375v-29.71875c0-5.519531 4.476562-10 10-10h158.859375c5.519531 0 10 4.480469 10 10zm0 0" fill="#7befe4"/><path d="m231.261719 165.378906h178.859375v267.179688h-178.859375zm0 0" fill="#fff"/><path d="m328.578125 463.660156v1.460938c-.058594 5.480468-4.519531 9.898437-10 9.898437h-35.757813c-5.539062 0-10-4.480469-10-10v-1.359375c0-5.480468 4.398438-9.941406 9.898438-10h35.859375c5.523437 0 10 4.480469 10 10zm0 0" fill="#d73735"/><path d="m328.578125 463.660156v1.460938h-35.859375c-5.539062 0-10-4.480469-10-10v-1.460938h35.859375c5.523437 0 10 4.480469 10 10zm0 0" fill="#f85252"/><path d="m286.160156 223.898438v53.640624c0 1.882813-.519531 3.621094-1.421875 5.121094-1.738281 2.917969-4.9375 4.878906-8.578125 4.878906h-53.640625c-5.519531 0-10-4.480468-10-10v-53.640624c0-5.519532 4.480469-10 10-10h53.640625c5.519532 0 10 4.480468 10 10zm0 0" fill="#1c868e"/><path d="m388.859375 223.898438v53.640624c0 5.519532-4.480469 10-10 10h-53.640625c-5.519531 0-10-4.480468-10-10v-53.640624c0-5.519532 4.480469-10 10-10h53.640625c5.519531 0 10 4.480468 10 10zm0 0" fill="#1c868e"/><path d="m286.160156 320.941406v53.636719c0 5.523437-4.480468 10-10 10h-53.640625c-5.519531 0-10-4.476563-10-10v-53.636719c0-5.519531 4.480469-10 10-10h53.640625c5.519532 0 10 4.480469 10 10zm0 0" fill="#1c868e"/><path d="m286.160156 223.898438v49.5h-49.5c-5.519531 0-10-4.476563-10-10v-49.5h49.5c5.519532 0 10 4.480468 10 10zm0 0" fill="#40c4df"/><path d="m388.859375 223.898438v49.5h-49.5c-5.519531 0-10-4.476563-10-10v-49.5h49.5c5.519531 0 10 4.480468 10 10zm0 0" fill="#40c4df"/><path d="m286.160156 320.941406v49.5h-49.5c-5.519531 0-10-4.480468-10-10v-49.5h49.5c5.519532 0 10 4.480469 10 10zm0 0" fill="#40c4df"/><path d="m503.199219 426.21875v26.660156c0 5.542969-4.480469 10-10 10h-137.621094c-5.519531 0-10-4.457031-10-10v-26.660156c0-5.519531 4.480469-10 10-10h137.621094c5.519531 0 10 4.480469 10 10zm0 0" fill="#1c868e"/><path d="m503.199219 426.21875v22.519531h-133.480469c-5.519531 0-10-4.457031-10-10v-22.519531h133.480469c5.519531 0 10 4.480469 10 10zm0 0" fill="#40c4df"/><path d="m486.261719 402.078125v4.140625c0 5.519531-4.480469 10-10 10h-103.742188c-5.519531 0-10-4.480469-10-10v-9.320312l-46.417969-46.417969c-3.78125-3.78125-4.023437-9.980469-.300781-13.820313 3.300781-3.421875 7.277344-5.71875 11.5-6.921875.121094 2.402344 1.121094 4.78125 2.9375 6.601563l46.421875 46.421875v9.316406c0 5.523437 4.480469 10 10 10zm0 0" fill="#edaf85"/><path d="m486.261719 327.878906v74.199219h-99.601563c-5.519531 0-10-4.476563-10-10v-9.316406l-46.421875-46.421875c-1.816406-1.820313-2.816406-4.199219-2.9375-6.601563 2.359375-.699219 4.820313-1.039062 7.257813-1.039062 6.679687 0 13.363281 2.539062 18.460937 7.640625 3.5 3.5 9.5 1.019531 9.5-3.941406v-4.519532c0-.738281.101563-1.457031.242188-2.160156-.140625-.699219-.242188-1.417969-.242188-2.179688v-77.140624c0-5.519532 4.480469-10 10-10h11.621094c5.519531 0 10 4.480468 10 10v61.480468c0 5.519532 4.480469 10 10 10h72.121094c5.519531 0 10 4.480469 10 10zm0 0" fill="#f7c09a"/><path d="m236.28125 120.238281c0 57.339844-41.519531 104.960938-96.140625 114.441407-54.621094-9.480469-96.140625-57.101563-96.140625-114.441407 0-57.316406 41.519531-104.9375 96.140625-114.417969 54.621094 9.480469 96.140625 57.101563 96.140625 114.417969zm0 0" fill="#fff"/><path d="m158.640625 119.839844c0 16.398437-8.878906 30.582031-21.761719 37.28125-1.917968 1-3.078125 3.058594-3.078125 5.21875v6.140625c0 2.417969-1.519531 4.5-3.660156 5.300781-.621094.238281-1.320313.378906-2.019531.378906h-15.960938c-3.121094 0-5.660156-2.539062-5.660156-5.679687v-6.140625c0-2.160156-1.160156-4.21875-3.101562-5.21875-12.878907-6.699219-21.757813-20.882813-21.757813-37.28125 0-22.878906 17.238281-41.441406 38.5-41.441406 3.460937 0 6.820313.5 10 1.421874 16.417969 4.738282 28.5 20.859376 28.5 40.019532zm0 0" fill="#d73735"/><path d="m158.640625 119.839844c0 16.398437-8.878906 30.582031-21.761719 37.28125-1.917968 1-3.078125 3.058594-3.078125 5.21875v6.140625c0 2.417969-1.519531 4.5-3.660156 5.300781-2.121094-.820312-3.640625-2.882812-3.640625-5.300781v-6.140625c0-2.160156-1.160156-4.21875-3.101562-5.21875-12.878907-6.699219-21.757813-20.882813-21.757813-37.28125 0-19.160156 12.078125-35.28125 28.5-40.019532 16.417969 4.738282 28.5 20.859376 28.5 40.019532zm0 0" fill="#f85252"/><path d="m133.800781 179.820312v.140626c0 2.417968-1.519531 4.480468-3.660156 5.277343-.621094.242188-1.320313.382813-2.019531.382813h-15.960938c-3.121094 0-5.660156-2.542969-5.660156-5.660156v-.140626c0-3.121093 2.539062-5.660156 5.660156-5.660156h15.960938c.699218 0 1.398437.140625 2.019531.378906 2.140625.800782 3.660156 2.859376 3.660156 5.28125zm0 0" fill="#1c868e"/><path d="m119.84375 185.617188c-7.007812 0-7.828125 10.566406-.859375 11.273437.382813.039063.769531.058594 1.160156.058594s.777344-.019531 1.15625-.058594c6.972657-.707031 6.152344-11.273437-.855469-11.273437zm0 0" fill="#fff"/><g fill="#491352"><path d="m493.199219 412.21875h-4.320313c.902344-1.820312 1.382813-3.859375 1.382813-6v-78.339844c0-7.71875-6.28125-14-14-14h-62.140625v-178.21875c0-7.71875-6.28125-14-14-14h-159.859375c.019531-.480468.019531-.941406.019531-1.421875 0-66.238281-53.882812-120.136719-120.140625-120.136719-66.242187 0-120.140625 53.898438-120.140625 120.136719 0 66.261719 53.898438 120.160157 120.140625 120.160157 24.839844 0 47.9375-7.578126 67.121094-20.539063v265.71875c0 7.722656 6.277343 14 14 14h198.859375c7.71875 0 14-6.277344 14-14v-18.699219h79.078125c7.722656 0 14-6.277344 14-14v-26.660156c0-7.71875-6.277344-14-14-14zm-16.9375-90.339844c3.296875 0 6 2.699219 6 6v78.339844c0 3.300781-2.703125 6-6 6-25.820313 0-85.164063 0-103.742188 0-3.320312 0-6-2.699219-6-6v-10.980469l-47.578125-47.578125c-2.320312-2.320312-2.421875-6-.28125-8.21875 4.160156-4.300781 9.738282-6.703125 15.71875-6.742187h.179688c5.902344 0 11.460937 2.28125 15.640625 6.460937 2.742187 2.761719 6.820312 3.578125 10.421875 2.078125 3.578125-1.476562 5.898437-4.957031 5.898437-8.839843.019531-.910157 0-40.546876 0-40.859376v-45.140624c0-3.320313 2.679688-6 6-6h11.621094c.238281 0 .480469.023437.71875.0625 2.960937.339843 5.28125 2.859374 5.28125 5.9375v61.480468c0 7.722656 6.28125 14 14 14zm-91.402344-89.4375c-.238281-.042968-.480469-.042968-.71875-.042968h-11.621094c-7.71875 0-14 6.28125-14 14v37.140624h-33.300781c-3.296875 0-6-2.699218-6-6v-53.640624c0-3.296876 2.703125-6 6-6h53.640625c3.320313 0 6 2.703124 6 6zm15.261719-102.78125c3.320312 0 6 2.699219 6 6v25.71875h-173.101563c3.660157-10.019531 6.039063-20.660156 6.878907-31.71875zm-279.980469 102.738282c-61.839844 0-112.140625-50.320313-112.140625-112.160157 0-61.816406 50.300781-112.136719 112.140625-112.136719s112.140625 50.320313 112.140625 112.136719c0 62.183594-50.597656 112.160157-112.140625 112.160157zm109.621094-63.019532h176.359375v144.5h-1.980469c-3.300781 0-6-2.699218-6-6v-61.480468c0-4.417969-2.0625-8.378907-5.28125-10.9375v-11.5625c0-7.71875-6.28125-14-14-14h-53.640625c-7.71875 0-14 6.28125-14 14v53.640624c0 7.722657 6.28125 14 14 14h33.300781c0 .222657.039063 36.820313 0 40.859376 0 .921874-.597656 1.300781-.960937 1.441406-.378906.160156-1.058594.320312-1.71875-.320313-5.679688-5.699219-13.238282-8.820312-21.28125-8.820312h-.238282c-8.140624.0625-15.742187 3.320312-21.398437 9.179687-5.183594 5.339844-5.023437 14.0625.359375 19.421875l45.238281 45.257813v7.660156c0 2.140625.480469 4.179688 1.359375 6h-4.300781c-7.71875 0-14 6.28125-14 14v2.339844h-146.316406v-214.617188c14.757812-11.839844 26.660156-27.101562 34.5-44.5625zm176.359375 316.199219c0 3.300781-2.679688 6-6 6h-198.859375c-3.300781 0-6-2.699219-6-6v-49.019531h146.316406v16.320312c0 7.722656 6.28125 14 14 14h50.542969zm93.078125-32.699219c0 3.320313-2.699219 6-6 6-31.386719 0-106.847657 0-137.621094 0-3.316406 0-6-2.679687-6-6v-26.660156c0-3.296875 2.683594-6 6-6h137.621094c3.300781 0 6 2.703125 6 6zm0 0"/><path d="m120.140625 74.398438c-23.441406 0-42.5 20.382812-42.5 45.441406 0 17.261718 9.398437 33.28125 23.917969 40.839844.5625.300781.941406.941406.941406 1.660156v6.140625c0 2.140625.699219 4.097656 1.878906 5.699219-1.199218 1.601562-1.878906 3.621093-1.878906 5.78125 0 4.699218 3.398438 8.640624 7.859375 9.480468-.097656.5-.179687 1.019532-.199219 1.519532-.261718 5.21875 3.28125 9.378906 8.441406 9.917968.5.042969 1.019532.0625 1.539063.0625s1.039063-.019531 1.558594-.082031c5.140625-.519531 8.679687-4.679687 8.421875-9.898437-.019532-.5-.101563-1.019532-.199219-1.519532 4.476563-.820312 7.878906-4.761718 7.878906-9.480468v-.140626c0-2.121093-.679687-4.082031-1.859375-5.660156 1.179688-1.601562 1.859375-3.539062 1.859375-5.679687v-6.140625c0-.71875.359375-1.359375.9375-1.660156 14.523438-7.558594 23.902344-23.578126 23.902344-40.839844 0-25.058594-19.0625-45.441406-42.5-45.441406zm9.660156 105.421874v.140626c0 .917968-.761719 1.660156-1.679687 1.660156h-15.960938c-.921875 0-1.660156-.742188-1.660156-1.800782 0-.921874.738281-1.660156 1.660156-1.660156h15.960938c.917968 0 1.679687.738282 1.679687 1.660156zm-8.878906 13.101563c-.5.039063-1.0625.039063-1.523437 0-.398438-.042969-1.320313-.140625-1.238282-1.5625.019532-.519531.238282-1.738281 1.679688-1.738281h.601562c1.4375 0 1.660156 1.21875 1.699219 1.738281.058594 1.421875-.859375 1.519531-1.21875 1.5625zm14.117187-39.34375c-3.238281 1.683594-5.238281 5.042969-5.238281 8.761719v6.140625c0 .917969-.761719 1.679687-1.679687 1.679687h-15.960938c-.921875 0-1.660156-.761718-1.660156-1.679687v-6.140625c0-3.71875-2.019531-7.078125-5.261719-8.761719-11.898437-6.199219-19.597656-19.4375-19.597656-33.738281 0-20.640625 15.480469-37.441406 34.5-37.441406s34.5 16.800781 34.5 37.441406c0 14.300781-7.699219 27.539062-19.601563 33.738281zm0 0"/><path d="m120.140625 68.621094c2.21875 0 4-1.800782 4-4v-21.082032c0-2.199218-1.78125-4-4-4-2.199219 0-4 1.800782-4 4v21.082032c0 2.199218 1.800781 4 4 4zm0 0"/><path d="m157.238281 51.261719-14.898437 14.878906c-.78125.78125-1.160156 1.820313-1.160156 2.839844s.378906 2.039062 1.160156 2.820312c.78125.777344 1.820312 1.179688 2.839844 1.179688 1.019531 0 2.039062-.402344 2.820312-1.179688l14.898438-14.902343c.78125-.777344 1.179687-1.796876 1.179687-2.820313 0-1.019531-.398437-2.039063-1.179687-2.816406-1.558594-1.582031-4.097657-1.582031-5.660157 0zm0 0"/><path d="m95.121094 72.980469c1.019531 0 2.039062-.402344 2.820312-1.179688.777344-.78125 1.179688-1.800781 1.179688-2.820312s-.402344-2.058594-1.179688-2.839844l-14.902344-14.878906c-1.558593-1.582031-4.078124-1.582031-5.640624 0-.796876.777343-1.179688 1.796875-1.179688 2.816406 0 1.023437.382812 2.042969 1.179688 2.820313l14.882812 14.902343c.777344.777344 1.820312 1.179688 2.839844 1.179688zm0 0"/><path d="m276.0625 147.769531h49.261719c2.207031 0 4-1.792969 4-4 0-2.210937-1.792969-4-4-4h-49.261719c-2.207031 0-4 1.789063-4 4 0 2.207031 1.792969 4 4 4zm0 0"/><path d="m318.578125 449.660156h-35.757813c-7.71875 0-14 6.28125-14 14v1.359375c0 7.71875 6.28125 14 14 14h35.757813c7.722656 0 14-6.28125 14-14v-1.359375c0-7.71875-6.277344-14-14-14zm6 15.359375c0 3.300781-2.699219 6-6 6h-35.757813c-3.320312 0-6-2.699219-6-6v-1.359375c0-3.320312 2.679688-6 6-6h35.757813c3.300781 0 6 2.679688 6 6zm0 0"/><path d="m222.519531 291.539062h53.640625c7.71875 0 14-6.277343 14-14v-53.640624c0-7.71875-6.28125-14-14-14h-53.640625c-7.71875 0-14 6.28125-14 14v53.640624c0 7.722657 6.28125 14 14 14zm-6-67.640624c0-3.296876 2.699219-6 6-6h53.640625c3.300782 0 6 2.703124 6 6v53.640624c0 3.300782-2.699218 6-6 6h-53.640625c-3.300781 0-6-2.699218-6-6zm0 0"/><path d="m222.519531 388.578125h53.640625c7.71875 0 14-6.277344 14-14v-53.636719c0-7.722656-6.28125-14-14-14h-53.640625c-7.71875 0-14 6.277344-14 14v53.636719c0 7.722656 6.28125 14 14 14zm-6-67.636719c0-3.300781 2.699219-6 6-6h53.640625c3.300782 0 6 2.699219 6 6v53.636719c0 3.300781-2.699218 6-6 6h-53.640625c-3.300781 0-6-2.699219-6-6zm0 0"/></g></svg>